<svg xmlns="http://www.w3.org/2000/svg" viewBox="0 0 114.1 128.32"><defs><style>.cls-1{fill:#fff;}</style></defs><g id="Layer_2" data-name="Layer 2"><g id="Layer_1-2" data-name="Layer 1"><rect class="cls-1" x="94.31" y="61.97" width="4.57" height="4.54"/><path class="cls-1" d="M112.69,32a10.67,10.67,0,0,0-4.11-4L63,1.73a11.2,11.2,0,0,0-12.12.1C44.82,5.38,14.52,22.75,5.52,28A10.52,10.52,0,0,0,0,37.72V90.59a11.48,11.48,0,0,0,1.31,5.54l0,0a11.1,11.1,0,0,0,4.18,4.15c1.69,1,4.13,2.39,7,4l.07,0,3,1.71L35.4,117.53l1.59.92,2.49,1.43,1.47.85.07,0c.73.42,1.44.82,2.11,1.22l.08,0c1.13.67,2.19,1.27,3.15,1.82.22.13.43.26.64.37s.68.39,1,.59l1,.59.6.34.53.33.64.38a15.68,15.68,0,0,0,1.63.83,13.92,13.92,0,0,0,1.48.55c.26.08.53.15.79.21l.58.11A10.92,10.92,0,0,0,63,126.59q22.79-13.19,45.59-26.27a10.5,10.5,0,0,0,4.19-4.14,10,10,0,0,0,.76-1.81c.07-.22.13-.43.19-.64a14.39,14.39,0,0,0,.3-1.64,15.4,15.4,0,0,0,.08-1.54V37.68A11,11,0,0,0,112.69,32ZM98.88,58.21V55.16h3.76v3.05h3.06V62h-3.06v4.54h3.06v3.76h-3.06v3.06H98.88V70.27H94.31v3.06H90.55V70.27h-3V66.51h3V62h-3V58.21h3V55.16h3.76v3.05ZM24.11,83h0a37.9,37.9,0,0,1,65.7-37.82L73.32,54.66A18.86,18.86,0,0,0,40.63,73.47a0,0,0,0,0,0,0,18.93,18.93,0,0,0,3,3.88c.19.2.39.4.61.59a.38.38,0,0,0,.09.09l.05,0s0,0,.07.08a1.39,1.39,0,0,0,.19.15l.36.31a.75.75,0,0,0,.13.11.39.39,0,0,0,.1.08l.09.09.21.16c.13.1.26.2.4.29a.88.88,0,0,0,.17.12l.08.07,0,0h0l.1.07.41.28h0s0,0,0,0,0,0,0,0l.07.05h0l.22.15.18.11a1.19,1.19,0,0,0,.15.09l.09.06h0l.06,0h0l0,0h0l.06,0h0l.05,0,.13.08h0l.06,0,.38.2c.26.14.54.28.82.41h0a17.53,17.53,0,0,0,2.16.83A18.63,18.63,0,0,0,57,83a18.38,18.38,0,0,0,4.48-.54,17.79,17.79,0,0,0,2-.59c.31-.11.64-.24.94-.37l.11,0,.11,0a1.23,1.23,0,0,0,.23-.11l.2-.09c.13,0,.26-.12.39-.18l0,0h0l0,0,.06,0h0c.21-.1.4-.21.6-.32s.43-.24.65-.38h0l0,0h0l.27-.18c.2-.12.39-.25.58-.39s.6-.43.9-.67h0a18.8,18.8,0,0,0,4.75-5.54l16.46,9.55A38,38,0,0,1,24.11,83Z"/></g></g></svg>