<svg xmlns="http://www.w3.org/2000/svg" viewBox="0 0 103.58 140.45"><defs><style>.cls-1{fill:#fff;fill-rule:evenodd;}</style></defs><g id="Layer_2" data-name="Layer 2"><g id="Layer_1-2" data-name="Layer 1"><path class="cls-1" d="M35.47,44.63C45.09,30.19,71.73,23.19,65.84,0c0,0,14.6,14.6-13.84,37-22.8,18-5.2,28.28,0,40C38.68,65,28.92,54.47,35.47,44.63Z"/><path class="cls-1" d="M37.18,112.79c11.13,1.27,16.82,1.09,29.08-1.23A50.93,50.93,0,0,0,74,115.33c-27.49,11.78-62.23-.68-40.63-6.72C33.36,108.61,28,111.74,37.18,112.79Z"/><path class="cls-1" d="M76.48,100.37c-33.24,9.72-70.26.76-46.49-7.13-.1.08-5.93,4.46,3.18,5.4C45.06,99.87,54.45,100,70.7,96.85A16.79,16.79,0,0,0,76.48,100.37Z"/><path class="cls-1" d="M65.84,62c7.86,11-9.08,19.89-9.3,20,.16-.12,8.5-7.08,1.78-14.82C35.43,40.78,83.14,28.76,83.44,28.69,52.81,46.45,58.47,51.6,65.84,62Z"/><path class="cls-1" d="M13.84,82.53c12.19-5.89,22.1-5.22,22.1-5.22s-25.53,6.06-9,8.27c7,.93,20.84.71,33.77-.37,10.47-.88,21-2.75,21.16-2.79a45.47,45.47,0,0,0-6.41,3.44C49.49,92.68-.58,89.5,13.84,82.53Z"/><path class="cls-1" d="M22.5,119.6a19.38,19.38,0,0,0-4.84.54c-2.95.64-12.35,3.66-7.34,5.85,13.94,6.06,64.12,4.61,80-.2,8.35-2.53,4.37-5.8,4.37-5.8C109.22,126.55,63.1,139.73,7,130.64-13.52,127.3,16.93,115.67,22.5,119.6Z"/><path class="cls-1" d="M87.39,77.83a20.17,20.17,0,0,0-3,.8,4.76,4.76,0,0,1,2.25-1.73c16.83-5.91,29.76,17.44-5.42,26.69a2.24,2.24,0,0,0,.52-.69C108.08,89.21,95.9,76.05,87.39,77.83Z"/><path class="cls-1" d="M103.58,127.14c-.92,12-39.76,14.49-65,12.87-16.62-1.07-19.86-3.75-19.86-3.75,15.79,2.61,42.42,3.08,64-1C101.82,131.68,103.58,127.14,103.58,127.14Z"/><path class="cls-1" d="M70.7,96.85c-16.25,3.12-25.64,3-37.53,1.79-9.11-.94-3.28-5.32-3.18-5.4-23.77,7.89,13.25,16.85,46.49,7.13A16.79,16.79,0,0,1,70.7,96.85Zm-4.44,14.71c-12.26,2.32-18,2.5-29.08,1.23-9.19-1.05-3.82-4.18-3.82-4.18-21.6,6,13.14,18.5,40.63,6.72A50.93,50.93,0,0,1,66.26,111.56Z"/><path class="cls-1" d="M65.84,62c7.86,11-9.08,19.89-9.3,20,.16-.12,8.5-7.08,1.78-14.82C35.43,40.78,83.14,28.76,83.44,28.69,52.81,46.45,58.47,51.6,65.84,62Z"/><path class="cls-1" d="M86.63,76.9a4.76,4.76,0,0,0-2.25,1.73,20.17,20.17,0,0,1,3-.8c8.51-1.78,20.69,11.38-5.66,25.07a2.24,2.24,0,0,1-.52.69C116.39,94.34,103.46,71,86.63,76.9Zm-26,8.31c-12.93,1.08-26.81,1.3-33.77.37-16.49-2.21,9-8.27,9-8.27s-9.91-.67-22.1,5.22c-14.42,7,35.65,10.15,61.58,3.33a45.47,45.47,0,0,1,6.41-3.44C81.65,82.46,71.14,84.33,60.67,85.21Zm34,34.78s4,3.27-4.37,5.8c-15.87,4.81-66,6.26-80,.2-5-2.19,4.39-5.21,7.34-5.85a19.38,19.38,0,0,1,4.84-.54c-5.57-3.93-36,7.7-15.46,11C63.1,139.73,109.22,126.55,94.68,120Z"/><path class="cls-1" d="M52,37c-22.8,18-5.2,28.28,0,40C38.68,65,28.92,54.47,35.47,44.63,45.09,30.19,71.73,23.19,65.84,0,65.84,0,80.44,14.6,52,37Z"/><path class="cls-1" d="M103.58,127.14c-.92,12-39.76,14.49-65,12.87-16.62-1.07-19.86-3.75-19.86-3.75,15.79,2.61,42.42,3.08,64-1C101.82,131.68,103.58,127.14,103.58,127.14Z"/></g></g></svg>