<svg xmlns="http://www.w3.org/2000/svg" viewBox="0 0 174.46 31.75"><defs><style>.cls-1{fill:#fff;}</style></defs><g id="Layer_2" data-name="Layer 2"><g id="Layer_2-2" data-name="Layer 2"><path class="cls-1" d="M44.05,0H34.74a.81.81,0,0,0-.81.81V23.21H30.51a.82.82,0,0,1-.82-.81V.81A.81.81,0,0,0,28.88,0H1.81A1.81,1.81,0,0,0,0,1.81V5.86A1.82,1.82,0,0,0,1.81,7.68H9V30.13a.81.81,0,0,0,.81.81h6.59a.81.81,0,0,0,.81-.81V8.49a.82.82,0,0,1,.82-.81h2.6a.82.82,0,0,1,.82.81V30.13a.81.81,0,0,0,.81.81H44.05C54.56,30.94,61,25.09,61,15.51S54.56-.06,44.05,0ZM44,23.19H41.93V8.49a.81.81,0,0,1,.81-.81h1.07c5.58,0,8.93,2.94,8.93,7.8S49.39,23.21,44,23.19Z"/><path class="cls-1" d="M62.36,19.86V1.33a.82.82,0,0,1,.81-.81h6.5a.81.81,0,0,1,.81.81V19.84A4.32,4.32,0,0,0,75,24a4.38,4.38,0,0,0,4.51-4.2V1.33a.81.81,0,0,1,.81-.81h6.5a.82.82,0,0,1,.81.81V19.86c0,7-5.66,11.89-12.61,11.89S62.36,26.83,62.36,19.86Z"/><path class="cls-1" d="M98.57,8.83v3.3a.81.81,0,0,0,.81.81h8a.81.81,0,0,1,.81.81v5.13a.81.81,0,0,1-.81.81h-8a.81.81,0,0,0-.81.81v9.63a.81.81,0,0,1-.81.81H91.41a.81.81,0,0,1-.81-.81V1.26a.81.81,0,0,1,.81-.81h18.07a.81.81,0,0,1,.81.81v6a.81.81,0,0,1-.81.81H99.38A.81.81,0,0,0,98.57,8.83Z"/><path class="cls-1" d="M121.7,8.83v3.3a.81.81,0,0,0,.81.81h8a.81.81,0,0,1,.81.81v5.13a.81.81,0,0,1-.81.81h-8a.81.81,0,0,0-.81.81v9.63a.81.81,0,0,1-.81.81h-6.35a.81.81,0,0,1-.81-.81V1.26a.81.81,0,0,1,.81-.81h18.07a.81.81,0,0,1,.81.81v6a.81.81,0,0,1-.81.81h-10.1A.81.81,0,0,0,121.7,8.83Z"/><path class="cls-1" d="M137.67.52h6.44a.81.81,0,0,1,.81.81V30.09a.81.81,0,0,1-.81.81h-6.44a.81.81,0,0,1-.81-.81V1.33A.81.81,0,0,1,137.67.52Z"/><path class="cls-1" d="M174.46,1.3V30.39a.81.81,0,0,1-.81.81h-1.43a.79.79,0,0,1-.56-.23l-14-13.57a.81.81,0,0,0-1.37.58V30.11a.81.81,0,0,1-.81.81H149a.81.81,0,0,1-.81-.81V1A.81.81,0,0,1,149,.22h1.46a.79.79,0,0,1,.56.23L165,14a.81.81,0,0,0,1.37-.58V1.3a.81.81,0,0,1,.81-.81h6.47A.81.81,0,0,1,174.46,1.3Z"/></g></g></svg>