<svg xmlns="http://www.w3.org/2000/svg" viewBox="0 0 110.42 109.85"><defs><style>.cls-1{fill:#fff;}</style></defs><g id="Layer_2" data-name="Layer 2"><g id="Layer_1-2" data-name="Layer 1"><g id="layer1"><g id="g1894"><path id="path8615" class="cls-1" d="M54.81,0c-28,0-26.28,12.16-26.28,12.16l0,12.59H55.31v3.78H17.94S0,26.5,0,54.78,15.66,82.06,15.66,82.06H25V68.94s-.5-15.66,15.41-15.66H66.94s14.9.24,14.9-14.4V14.66S84.11,0,54.81,0ZM40.06,8.47a4.81,4.81,0,1,1-4.81,4.81A4.81,4.81,0,0,1,40.06,8.47Z"/><path id="path8620" class="cls-1" d="M55.61,109.85c28,0,26.28-12.16,26.28-12.16l0-12.59H55.11V81.31H92.48s17.94,2,17.94-26.25S94.76,27.78,94.76,27.78H85.42V40.91S85.92,56.56,70,56.56H43.48S28.58,56.32,28.58,71V95.19S26.31,109.85,55.61,109.85Zm14.75-8.47a4.82,4.82,0,1,1,4.81-4.82A4.81,4.81,0,0,1,70.36,101.38Z"/></g></g></g></g></svg>